<?xml version="1.0" encoding="UTF-8"?>
<svg id="Layer_1" data-name="Layer 1" xmlns="http://www.w3.org/2000/svg" viewBox="0 0 500 500">
  <defs>
    <style>
      .cls-1 {
        fill: #fff;
      }
    </style>
  </defs>
  <path class="cls-1" d="M250,34.42c-119.06,0-215.58,96.52-215.58,215.58s96.52,215.58,215.58,215.58c41.54,0,80.33-11.75,113.24-32.1,1.1-.68,2.2-1.37,3.28-2.07,59.59-38.35,99.05-105.27,99.05-181.4,0-119.06-96.52-215.58-215.58-215.58ZM126.94,116.73c32.35-29.89,75.61-48.15,123.13-48.15,100.24,0,181.5,81.26,181.5,181.5,0,57.14-26.4,108.1-67.67,141.37,0-.16,0-.32-.01-.47-64.98-65.67-127.8-129.16-190.5-192.52v200.39h34.44v-122.67c44.66,45.21,87.46,88.52,130.78,132.37-26.19,14.66-56.39,23.02-88.54,23.02-100.24,0-181.5-81.26-181.5-181.5,0-36.99,11.07-71.4,30.07-100.09.1,0,.19,0,.29,0,49.69-.38,99.41-.99,149.08.2,35.95.86,65.17,32.76,66.32,68.64.79,24.64-9.5,44.02-27.32,60.35,7.38,7.37,14.19,14.16,21.87,21.83,27.01-24.81,40.96-54.84,35.84-91.07-7.92-56.11-49.66-91.34-106.46-91.7-47.59-.3-85.23-1.32-111.35-1.49"/>
</svg>